<svg width="25" height="24" viewBox="0 0 25 24" fill="none" xmlns="http://www.w3.org/2000/svg">
<path d="M15.5742 6.60001C15.7933 6.81667 15.9028 7.08334 15.9028 7.40001C15.9028 7.71667 15.7933 7.98334 15.5742 8.20001L11.7312 12L15.5742 15.8C15.7933 16.0167 15.9028 16.2833 15.9028 16.6C15.9028 16.9167 15.7933 17.1833 15.5742 17.4C15.355 17.6167 15.0854 17.725 14.7651 17.725C14.4449 17.725 14.1752 17.6167 13.9561 17.4L9.3041 12.8C9.18612 12.6833 9.10184 12.5583 9.05128 12.425C9.00071 12.2917 8.97543 12.15 8.97543 12C8.97543 11.85 9.00071 11.7083 9.05128 11.575C9.10184 11.4417 9.18612 11.3167 9.3041 11.2L13.9561 6.60001C14.1752 6.38334 14.4449 6.27501 14.7651 6.27501C15.0854 6.27501 15.355 6.38334 15.5742 6.60001V6.60001Z" fill="white"/>
</svg>
