<svg width="14" height="14" viewBox="0 0 14 14" fill="none" xmlns="http://www.w3.org/2000/svg">
<path d="M13.7335 6.00001C13.7669 6.16668 13.7864 6.33335 13.7922 6.50001C13.7975 6.66668 13.8002 6.83335 13.8002 7.00001C13.8002 7.94446 13.6224 8.83068 13.2669 9.65868C12.9113 10.4862 12.428 11.2056 11.8169 11.8167C11.2058 12.4278 10.4864 12.9111 9.65886 13.2667C8.83086 13.6222 7.94464 13.8 7.0002 13.8C6.05575 13.8 5.16953 13.6222 4.34153 13.2667C3.51397 12.9111 2.79464 12.4278 2.18353 11.8167C1.57242 11.2056 1.08908 10.4862 0.733529 9.65868C0.377973 8.83068 0.200195 7.94446 0.200195 7.00001C0.200195 6.05557 0.377973 5.16935 0.733529 4.34135C1.08908 3.51379 1.57242 2.79446 2.18353 2.18335C2.79464 1.57223 3.51397 1.0889 4.34153 0.733346C5.16953 0.37779 6.05575 0.200012 7.0002 0.200012C7.54464 0.200012 8.06686 0.261123 8.56686 0.383346C9.06686 0.505568 9.54464 0.67779 10.0002 0.900012C10.1891 1.00001 10.3113 1.15557 10.3669 1.36668C10.4224 1.57779 10.378 1.77223 10.2335 1.95001C10.1224 2.11668 9.96975 2.22779 9.77553 2.28335C9.58086 2.3389 9.38908 2.32223 9.2002 2.23335C8.87797 2.06668 8.52797 1.9389 8.1502 1.85001C7.77242 1.76112 7.38908 1.71668 7.0002 1.71668C5.53353 1.71668 4.28642 2.23046 3.25886 3.25801C2.23086 4.28601 1.71686 5.53335 1.71686 7.00001C1.71686 8.46668 2.23086 9.71401 3.25886 10.742C4.28642 11.7696 5.53353 12.2833 7.0002 12.2833C8.47797 12.2833 9.72797 11.7667 10.7502 10.7333C11.7724 9.70001 12.2835 8.45001 12.2835 6.98335C12.2835 6.87223 12.278 6.75823 12.2669 6.64135L12.2335 6.30001C12.2113 6.0889 12.2475 5.91112 12.3422 5.76668C12.4364 5.62223 12.5613 5.51112 12.7169 5.43335C12.9169 5.32223 13.1253 5.32779 13.3422 5.45001C13.5586 5.57223 13.6891 5.75557 13.7335 6.00001ZM5.51686 9.61668L3.66686 7.75001C3.52242 7.61668 3.45308 7.44712 3.45886 7.24135C3.4642 7.03601 3.53908 6.86668 3.68353 6.73335C3.81686 6.5889 3.98908 6.51668 4.2002 6.51668C4.41131 6.51668 4.58908 6.5889 4.73353 6.73335L6.0502 8.06668L12.2502 1.85001C12.3946 1.70557 12.5669 1.63601 12.7669 1.64135C12.9669 1.64712 13.1391 1.72223 13.2835 1.86668C13.4169 2.00001 13.4835 2.17223 13.4835 2.38335C13.4835 2.59446 13.4169 2.77223 13.2835 2.91668L6.58353 9.61668C6.43908 9.76112 6.26131 9.83335 6.0502 9.83335C5.83908 9.83335 5.66131 9.76112 5.51686 9.61668Z" fill="#7FE25C"/>
</svg>
