<svg width="24" height="24" viewBox="0 0 24 24" fill="none" xmlns="http://www.w3.org/2000/svg">
<path d="M11.9998 17.1C12.3165 17.1 12.5791 16.996 12.7878 16.788C12.9958 16.5793 13.0998 16.3167 13.0998 16V12.075C13.0998 11.7583 12.9958 11.5 12.7878 11.3C12.5791 11.1 12.3165 11 11.9998 11C11.6831 11 11.4208 11.104 11.2128 11.312C11.0041 11.5207 10.8998 11.7833 10.8998 12.1V16.025C10.8998 16.325 11.0041 16.5793 11.2128 16.788C11.4208 16.996 11.6831 17.1 11.9998 17.1ZM11.9998 9.12499C12.3165 9.12499 12.5831 9.01665 12.7998 8.79999C13.0165 8.58332 13.1248 8.31665 13.1248 7.99999C13.1248 7.68332 13.0165 7.41665 12.7998 7.19999C12.5831 6.98332 12.3165 6.87499 11.9998 6.87499C11.6831 6.87499 11.4165 6.98332 11.1998 7.19999C10.9831 7.41665 10.8748 7.68332 10.8748 7.99999C10.8748 8.31665 10.9831 8.58332 11.1998 8.79999C11.4165 9.01665 11.6831 9.12499 11.9998 9.12499ZM11.9998 22.2C10.5831 22.2 9.2538 21.9333 8.0118 21.4C6.77047 20.8667 5.69147 20.1417 4.7748 19.225C3.85814 18.3083 3.13314 17.2293 2.5998 15.988C2.06647 14.746 1.7998 13.4167 1.7998 12C1.7998 10.5833 2.06647 9.25399 2.5998 8.01199C3.13314 6.77065 3.85814 5.69165 4.7748 4.77499C5.69147 3.85832 6.77047 3.13332 8.0118 2.59999C9.2538 2.06665 10.5831 1.79999 11.9998 1.79999C13.4165 1.79999 14.7458 2.06665 15.9878 2.59999C17.2291 3.13332 18.3081 3.85832 19.2248 4.77499C20.1415 5.69165 20.8665 6.77065 21.3998 8.01199C21.9331 9.25399 22.1998 10.5833 22.1998 12C22.1998 13.4167 21.9331 14.746 21.3998 15.988C20.8665 17.2293 20.1415 18.3083 19.2248 19.225C18.3081 20.1417 17.2291 20.8667 15.9878 21.4C14.7458 21.9333 13.4165 22.2 11.9998 22.2ZM11.9998 19.925C14.1998 19.925 16.0708 19.1543 17.6128 17.613C19.1541 16.071 19.9248 14.2 19.9248 12C19.9248 9.79999 19.1541 7.92899 17.6128 6.38699C16.0708 4.84565 14.1998 4.07499 11.9998 4.07499C9.7998 4.07499 7.92914 4.84565 6.3878 6.38699C4.8458 7.92899 4.0748 9.79999 4.0748 12C4.0748 14.2 4.8458 16.071 6.3878 17.613C7.92914 19.1543 9.7998 19.925 11.9998 19.925Z" fill="white"/>
</svg>
