<svg width="17" height="16" viewBox="0 0 17 16" fill="none" xmlns="http://www.w3.org/2000/svg">
<g id="icon/lock/locked">
<path id="Vector" d="M4.92139 14.6666C4.55266 14.6666 4.23701 14.5361 3.97443 14.275C3.71186 14.0138 3.58057 13.7 3.58057 13.3333V6.66663C3.58057 6.29996 3.71186 5.98607 3.97443 5.72496C4.23701 5.46385 4.55266 5.33329 4.92139 5.33329H5.5918V3.99996C5.5918 3.07774 5.91863 2.29163 6.57228 1.64163C7.22593 0.991626 8.01646 0.666626 8.94386 0.666626C9.87127 0.666626 10.6618 0.991626 11.3154 1.64163C11.9691 2.29163 12.2959 3.07774 12.2959 3.99996V5.33329H12.9663C13.3351 5.33329 13.6507 5.46385 13.9133 5.72496C14.1759 5.98607 14.3072 6.29996 14.3072 6.66663V13.3333C14.3072 13.7 14.1759 14.0138 13.9133 14.275C13.6507 14.5361 13.3351 14.6666 12.9663 14.6666H4.92139ZM8.94386 11.3333C9.31259 11.3333 9.62824 11.2027 9.89082 10.9416C10.1534 10.6805 10.2847 10.3666 10.2847 9.99996C10.2847 9.63329 10.1534 9.3194 9.89082 9.05829C9.62824 8.79718 9.31259 8.66663 8.94386 8.66663C8.57514 8.66663 8.25948 8.79718 7.99691 9.05829C7.73433 9.3194 7.60304 9.63329 7.60304 9.99996C7.60304 10.3666 7.73433 10.6805 7.99691 10.9416C8.25948 11.2027 8.57514 11.3333 8.94386 11.3333ZM6.93263 5.33329H10.9551V3.99996C10.9551 3.4444 10.7596 2.97218 10.3685 2.58329C9.97741 2.1944 9.50254 1.99996 8.94386 1.99996C8.38519 1.99996 7.91031 2.1944 7.51924 2.58329C7.12816 2.97218 6.93263 3.4444 6.93263 3.99996V5.33329Z" fill="#FFD737"/>
</g>
</svg>
