<svg width="24" height="24" viewBox="0 0 24 24" fill="none" xmlns="http://www.w3.org/2000/svg">
<g clip-path="url(#clip0_1147_5426)">
<path d="M12.1883 7.48011C10.5019 7.49783 8.82207 7.26557 7.2037 6.79088C6.48677 6.51888 6.52677 6.01118 6.56247 5.56011C6.72124 3.56318 7.15508 2.17057 7.85477 1.4198C8.02328 1.23825 8.2287 1.09488 8.45724 0.999347C8.68577 0.903815 8.93212 0.85833 9.1797 0.865954C9.80122 0.903287 10.4076 1.07303 10.9582 1.3638C10.9514 1.32927 10.9471 1.29432 10.9452 1.25919C10.9401 1.0714 11.0061 0.888592 11.13 0.747418C11.2539 0.606244 11.4267 0.517135 11.6135 0.497954C11.8974 0.464544 12.1831 0.449334 12.4689 0.452416C13.3848 0.448783 14.2964 0.575383 15.1766 0.828416C17.1914 1.42903 17.3631 3.47457 17.4769 4.82842C17.4972 5.06595 17.5157 5.28872 17.5422 5.48811C17.6073 5.70749 17.5969 5.94238 17.5126 6.15515C17.4284 6.36793 17.2752 6.54628 17.0775 6.66165C16.5625 6.94718 14.8806 7.48011 12.1883 7.48011Z" fill="#3A3A3A"/>
<path d="M12.4696 0.912059C13.3406 0.908882 14.2077 1.02905 15.045 1.26898C17.0789 1.87514 16.9109 4.23514 17.0893 5.55329C17.1361 5.89852 17.1336 6.11452 16.8573 6.26591C16.4512 6.48806 14.8401 7.02283 12.189 7.02283C10.5588 7.03766 8.93509 6.81565 7.3687 6.36375C6.99393 6.22098 6.98163 6.08006 7.0204 5.5976C7.10101 4.58221 7.32809 2.6579 8.18963 1.73175C8.31617 1.59699 8.47015 1.49094 8.64117 1.42077C8.8122 1.35059 8.99628 1.31793 9.18101 1.32498C9.79571 1.3731 10.3923 1.55566 10.9287 1.85975C11.7559 2.33266 12.6801 2.61049 13.6309 2.67206C14.0924 2.67206 14.2936 2.36806 13.8302 2.13052C13.1689 1.78891 12.4482 1.57709 11.7072 1.50652C11.669 1.51141 11.6302 1.50833 11.5933 1.49747C11.5564 1.48662 11.5222 1.46823 11.4927 1.44346C11.4633 1.41869 11.4393 1.38808 11.4223 1.35357C11.4053 1.31907 11.3956 1.2814 11.3939 1.24297C11.3922 1.20454 11.3985 1.16617 11.4124 1.13029C11.4263 1.09441 11.4474 1.06179 11.4746 1.03451C11.5017 1.00723 11.5342 0.98587 11.57 0.971783C11.6058 0.957697 11.6441 0.95119 11.6826 0.952674C11.9438 0.92284 12.2067 0.90948 12.4696 0.912674M12.4696 0.000674102C12.1612 -0.00264169 11.8528 0.0142148 11.5466 0.0511356C11.3473 0.0768214 11.1574 0.150874 10.9934 0.26683C10.8294 0.382786 10.6963 0.537121 10.6056 0.716366C10.1531 0.529039 9.67 0.426414 9.1804 0.413597C8.8699 0.406187 8.56134 0.464532 8.27498 0.584802C7.98863 0.705071 7.73095 0.884546 7.51886 1.11144C6.73916 1.95021 6.27763 3.39452 6.10778 5.52621C6.02517 5.87362 6.07505 6.23935 6.24768 6.55195C6.42031 6.86455 6.70328 7.10156 7.04132 7.21667C8.71118 7.70854 10.4446 7.95075 12.1853 7.93544C14.9699 7.93544 16.7435 7.36683 17.293 7.06591C17.5719 6.90709 17.791 6.6613 17.9169 6.36612C18.0429 6.07094 18.0686 5.74264 17.9902 5.43144C17.9644 5.23944 17.9465 5.02406 17.9287 4.79514C17.813 3.40744 17.621 1.08437 15.3053 0.395136C14.3836 0.129814 13.4288 -0.00320759 12.4696 5.87178e-05V0.000674102Z" fill="white"/>
<path d="M11.9351 23.5447C11.7563 23.5361 11.5824 23.4837 11.4286 23.3921C10.6521 22.9616 9.9249 22.4475 9.25999 21.8591C9.2135 21.9085 9.15714 21.9474 9.09458 21.9735C9.03203 21.9996 8.96467 22.0122 8.89692 22.0105C8.72104 22.0024 8.55526 21.926 8.43476 21.7976C7.61311 20.972 6.9847 19.9746 6.59476 18.877C6.37236 18.1984 6.20283 17.5036 6.08769 16.7988C5.96008 16.7862 5.8404 16.7311 5.7478 16.6424C5.6552 16.5537 5.59502 16.4366 5.57692 16.3096C5.3256 15.0428 5.42193 13.7316 5.85569 12.5151C5.95969 12.2167 5.98738 12.1373 5.17569 11.7693C3.73958 11.1955 2.4736 10.2648 1.49753 9.0653C0.66861 7.95145 0.33261 6.95884 0.496302 6.1053C0.543395 5.84516 0.644788 5.59786 0.793871 5.37954C0.942954 5.16122 1.13638 4.97677 1.36153 4.83822C1.68127 4.63647 2.05177 4.52976 2.42984 4.53053C3.37492 4.63148 4.2742 4.9897 5.02984 5.56622C6.39415 6.43207 9.23353 8.23145 12.0015 8.23145C14.7695 8.23145 17.6077 6.43145 18.9726 5.56684C19.7282 4.98969 20.6278 4.63102 21.5732 4.52991C21.9513 4.52915 22.3218 4.63586 22.6415 4.8376C22.8653 4.97533 23.0576 5.15853 23.206 5.37532C23.3544 5.59211 23.4556 5.83766 23.5031 6.09607C23.668 6.94591 23.3332 7.94222 22.5086 9.05976C21.4787 10.4365 20.0331 11.4452 18.3855 11.9367C17.9985 12.0481 17.9308 12.1428 17.9277 12.1478C17.941 12.247 17.9745 12.3425 18.0261 12.4284C18.3128 13.1399 18.4548 13.9014 18.444 14.6684C18.4478 15.1745 18.3931 15.6794 18.2809 16.173C18.1517 16.701 17.8083 16.7576 17.6655 16.7576C17.6359 16.7578 17.6063 16.7557 17.5769 16.7515C17.405 17.7282 17.1273 18.6834 16.7486 19.6001C16.4142 20.3686 15.989 21.0944 15.4821 21.7619C15.4216 21.8414 15.3446 21.9069 15.2565 21.9539C15.1683 22.0009 15.0711 22.0284 14.9714 22.0345C14.8891 22.0363 14.8075 22.018 14.7338 21.9814C14.6601 21.9447 14.5963 21.8907 14.548 21.8241C13.8837 22.43 13.1572 22.964 12.3806 23.4173C12.2449 23.4959 12.0918 23.5397 11.9351 23.5447ZM10.2385 16.7238C9.96645 16.7238 9.80768 17.3595 9.79353 17.9545C9.78993 18.2201 9.80928 18.4855 9.85138 18.7478C9.97149 19.5134 10.2945 20.2329 10.7868 20.8315L10.8366 20.8807C10.7615 19.5268 10.8126 18.8696 11.5671 18.7995C11.6249 18.7933 11.6901 18.7502 11.7843 18.5225C12.2046 17.5084 12.1572 17.0628 12.1074 16.9841L11.9098 17.0081C11.3978 17.0184 10.8885 16.9315 10.4089 16.7521C10.354 16.7336 10.2964 16.724 10.2385 16.7238ZM10.7763 14.6524C10.5745 14.6735 10.3759 14.7179 10.1843 14.7847C9.93507 14.8608 9.69831 14.973 9.48153 15.1176C9.55045 15.0795 9.62163 15.0431 9.69507 15.0087C9.9373 14.9006 10.1896 14.8167 10.4483 14.7582C10.5604 14.7338 10.6704 14.7009 10.7775 14.6598C10.7775 14.6598 10.7763 14.6555 10.7732 14.6524H10.7763ZM8.65445 13.2075C8.73719 13.3803 8.86335 13.5287 9.02061 13.6382H9.02553C9.07955 13.6327 9.13267 13.6205 9.18369 13.6019C9.51592 13.4969 9.79409 13.2664 9.95907 12.9595C10.0225 12.819 10.1243 12.6994 10.2528 12.6144C10.3813 12.5293 10.5312 12.4823 10.6852 12.4788C10.8462 12.4755 11.003 12.5299 11.1272 12.6324C11.2514 12.7348 11.3348 12.8783 11.3621 13.037C11.4133 13.0293 11.4649 13.0254 11.5166 13.0253C11.5449 13.0253 11.572 13.0253 11.5991 13.029C11.5052 12.7171 11.4568 12.3934 11.4551 12.0678C11.4551 11.9847 11.4514 11.9035 11.4514 11.8216C11.3874 11.9031 11.3057 11.969 11.2126 12.0143C11.1194 12.0596 11.0171 12.0832 10.9135 12.0831C10.7387 12.0829 10.5701 12.0186 10.4397 11.9022C10.1659 12.0441 9.86127 12.1162 9.55292 12.1121C9.45192 12.1118 9.35103 12.1056 9.25076 12.0936C8.9394 12.0418 8.63639 11.9484 8.34984 11.8161C8.42479 11.9573 8.52204 12.0855 8.63784 12.1958C8.71646 12.2564 8.78135 12.333 8.82824 12.4205C8.87512 12.508 8.90293 12.6044 8.90984 12.7035C8.90733 12.7985 8.88399 12.8919 8.84146 12.977C8.79893 13.062 8.73824 13.1367 8.66368 13.1958L8.65445 13.2075Z" fill="#3A3A3A"/>
<path d="M21.5721 4.98771C21.8662 4.98748 22.1542 5.07186 22.4017 5.23079C23.0989 5.66156 23.6078 6.80371 22.1401 8.7914C21.1723 10.0887 19.8111 11.0384 18.2595 11.4991C17.414 11.7452 17.3426 12.0739 17.6171 12.6314C17.8706 13.2803 17.996 13.9723 17.9863 14.6689C17.9905 15.1376 17.9402 15.6052 17.8361 16.0622C17.7918 16.2431 17.7321 16.2985 17.6657 16.2985C17.5604 16.2985 17.4386 16.1582 17.3371 16.1582C17.2755 16.1582 17.2251 16.2068 17.1875 16.3612C17.009 17.4029 16.7221 18.423 16.3315 19.4049C16.0159 20.1345 15.6154 20.8244 15.1383 21.4603C15.0669 21.5428 15.0152 21.5754 14.9734 21.5754C14.8171 21.5754 14.8355 21.1028 14.6792 21.1028C14.6429 21.1028 14.5974 21.1286 14.5377 21.1914C13.8303 21.8942 13.0367 22.5046 12.1758 23.008C12.1035 23.053 12.0214 23.0798 11.9364 23.0862C11.8316 23.0767 11.7305 23.0423 11.6417 22.9859C10.8045 22.5217 10.0281 21.9556 9.33029 21.3003C9.2509 21.2234 9.19429 21.1939 9.15183 21.1939C9.00475 21.1939 9.03183 21.552 8.89767 21.552C8.86259 21.552 8.81583 21.5274 8.75244 21.4652C7.98115 20.6867 7.39058 19.748 7.02259 18.7157C6.76992 17.9133 6.58062 17.0923 6.45644 16.2603C6.44106 16.1711 6.41706 16.1372 6.38813 16.1372C6.31552 16.1372 6.21029 16.3366 6.12106 16.3366C6.08229 16.3366 6.0466 16.2985 6.01767 16.1883C5.79198 15.0092 5.8846 13.7912 6.28598 12.6597C6.51552 12.0006 6.23183 11.7409 5.3629 11.3471C3.99707 10.8062 2.79232 9.92498 1.86321 8.7871C0.386288 6.80556 0.904442 5.65479 1.60167 5.22648C1.84916 5.06759 2.13711 4.98321 2.43121 4.9834C3.28884 5.08725 4.10262 5.42037 4.7869 5.94771C6.47675 7.0234 9.20967 8.68802 11.9998 8.68802C14.79 8.68802 17.5266 7.0234 19.2171 5.95202C19.9013 5.42466 20.7151 5.09153 21.5727 4.98771M10.9131 11.6308C10.8664 11.6297 10.8209 11.6166 10.7808 11.5928C10.7407 11.569 10.7074 11.5352 10.6841 11.4948C10.6287 11.4056 10.5795 11.3717 10.5241 11.3717C10.3611 11.3717 10.1426 11.6591 9.55306 11.6591C9.47076 11.6587 9.38856 11.6534 9.3069 11.6431C8.78936 11.5816 8.17521 11.1865 7.88413 11.1871C7.77706 11.1871 7.71367 11.24 7.71367 11.3816C7.79458 11.8255 8.01361 12.2325 8.33952 12.5446C8.71552 12.8708 8.03183 12.816 8.21644 13.3483C8.33632 13.6324 8.53979 13.8732 8.79983 14.0388C8.86638 14.0773 8.94202 14.0972 9.0189 14.0966C9.12152 14.0924 9.22294 14.0729 9.31983 14.0388C9.77198 13.8964 10.1493 13.5806 10.3691 13.1606C10.3948 13.0969 10.4382 13.0418 10.4943 13.002C10.5504 12.9622 10.6167 12.9393 10.6854 12.936C10.741 12.9322 10.7959 12.9503 10.8384 12.9864C10.881 13.0225 10.9077 13.0737 10.9131 13.1292C10.9266 13.3139 10.9223 13.56 11.1211 13.56C11.1631 13.5588 11.2047 13.5507 11.2441 13.536C11.3309 13.5037 11.4224 13.4858 11.5149 13.4831C11.5905 13.4802 11.6649 13.5018 11.7272 13.5446C11.7753 13.5828 11.8345 13.6044 11.8958 13.6062C12.0804 13.6062 12.2226 13.3859 12.0977 13.0671C11.971 12.7455 11.9083 12.4023 11.9131 12.0566C11.8898 11.6089 11.9169 11.1599 11.9937 10.7182C12.0595 10.4437 12.0675 10.2345 11.8607 10.2179H11.8331C11.4281 10.2179 11.2792 10.9471 11.1814 11.3736C11.1744 11.4409 11.1437 11.5036 11.0948 11.5505C11.0459 11.5974 10.9819 11.6254 10.9143 11.6296M14.2041 11.8843C13.9622 11.8839 13.7212 11.8565 13.4854 11.8025C13.4638 11.7974 13.4417 11.7948 13.4195 11.7945C13.2964 11.7945 13.3118 11.9059 13.3826 12.0062C13.5121 12.1975 13.6863 12.3544 13.8899 12.4634C14.0936 12.5725 14.3208 12.6303 14.5518 12.632C14.5844 12.632 14.6177 12.632 14.6509 12.6289C14.8495 12.6012 15.0372 12.521 15.1944 12.3965C15.3516 12.2719 15.4726 12.1077 15.5451 11.9206C15.6287 11.7625 15.6318 11.6492 15.5211 11.6492C15.4893 11.6504 15.4579 11.6566 15.4281 11.6677C15.035 11.8068 14.6217 11.8804 14.2047 11.8856M8.18998 17.6966C8.23981 17.6931 8.28677 17.6719 8.32249 17.637C8.35821 17.6021 8.38038 17.5556 8.38506 17.5059C8.43779 17.059 8.60388 16.6331 8.86754 16.2685C9.1312 15.9039 9.48368 15.6128 9.89152 15.4228C10.63 15.0751 11.3377 15.2382 11.2226 14.5323C11.2175 14.4811 11.202 14.4314 11.1771 14.3864C11.1522 14.3413 11.1183 14.3018 11.0776 14.2703C11.0368 14.2388 10.9901 14.2159 10.9402 14.2031C10.8904 14.1903 10.8384 14.1878 10.7875 14.1957C10.5353 14.2117 10.2867 14.2635 10.0491 14.3496C8.49029 14.8419 7.9789 16.1157 8.03121 17.5299C8.03039 17.5514 8.03389 17.5729 8.0415 17.593C8.04912 17.6132 8.0607 17.6316 8.07556 17.6472C8.09042 17.6628 8.10825 17.6753 8.12801 17.6839C8.14777 17.6925 8.16905 17.697 8.1906 17.6972M11.8337 15.9994C12.0362 16.0041 12.2387 15.9863 12.4374 15.9465C12.5524 15.9114 12.6367 15.9126 12.6367 15.7003C12.6367 15.4972 12.518 15.4579 12.4232 15.4579H12.4158C12.2183 15.4579 11.5291 15.4345 11.3512 15.4265H11.3229C11.1518 15.4265 10.9998 15.5114 10.9844 15.6462C10.9691 15.7809 11.0897 15.9336 11.4767 15.9828C11.5936 15.9964 11.7111 16.0028 11.8287 16.0019M11.1444 21.6289C11.2601 21.6289 11.334 21.5231 11.3149 21.2265C11.1161 18.0653 11.6515 20.04 12.2066 18.6991C12.7346 17.424 12.7432 16.5526 12.1161 16.5526H12.0952C12.0306 16.5526 11.9684 16.5526 11.9106 16.5526C11.4499 16.5627 10.9916 16.4844 10.5604 16.3219C10.4582 16.2837 10.3502 16.2629 10.2411 16.2603C9.4829 16.2603 9.35059 17.4111 9.3389 17.9416C9.33399 18.2335 9.35458 18.5252 9.40044 18.8136C9.53244 19.6768 9.89948 20.4871 10.4614 21.1557C10.6521 21.3465 10.9537 21.6289 11.1414 21.6289M21.5721 4.07386C20.8017 4.07386 19.9512 4.40494 18.7278 5.18156C17.3992 6.0234 14.6355 7.7754 12.0017 7.7754C9.36783 7.7754 6.60413 6.0234 5.27552 5.18156C4.05213 4.40617 3.20106 4.07386 2.43121 4.07386C1.96826 4.07294 1.51464 4.20401 1.12352 4.45171C0.844128 4.62321 0.603996 4.85164 0.418763 5.12212C0.23353 5.3926 0.10735 5.69906 0.0484419 6.02156C-0.140481 7.00617 0.223826 8.1194 1.13029 9.33663C2.15075 10.5992 3.47765 11.5793 4.98444 12.1834C5.13018 12.247 5.27234 12.3185 5.41029 12.3976C4.95852 13.6897 4.86266 15.0796 5.13275 16.4216C5.16519 16.5769 5.2317 16.7231 5.32747 16.8496C5.42325 16.9762 5.5459 17.0799 5.6866 17.1532C5.79843 17.7899 5.95764 18.4173 6.1629 19.0302C6.57659 20.192 7.24261 21.2476 8.11306 22.1213C8.21397 22.2283 8.33525 22.3141 8.46978 22.3736C8.60431 22.4331 8.74937 22.4651 8.89644 22.4677C9.00201 22.4675 9.10689 22.4507 9.20721 22.4179C9.83059 22.9406 10.503 23.4018 11.2152 23.7951C11.434 23.9221 11.6811 23.9925 11.934 24C12.1632 23.9959 12.3878 23.9348 12.5875 23.8222C13.2935 23.4138 13.9598 22.9404 14.5777 22.408C14.7021 22.4613 14.8361 22.4885 14.9715 22.488C15.1372 22.4844 15.2999 22.4438 15.4479 22.3693C15.5959 22.2948 15.7254 22.1882 15.8269 22.0572C16.3636 21.3585 16.8121 20.5962 17.1623 19.7877C17.5183 18.9455 17.7844 18.068 17.9561 17.1699C18.1531 17.1051 18.3286 16.9879 18.464 16.8309C18.5994 16.674 18.6896 16.4831 18.7247 16.2788C18.8455 15.7508 18.9047 15.2106 18.9014 14.6689C18.906 13.8883 18.772 13.113 18.5057 12.3791H18.5137C20.2568 11.859 21.7862 10.7916 22.8755 9.33479C23.7795 8.11079 24.1414 6.99633 23.9512 6.01171C23.892 5.69108 23.7661 5.38646 23.5817 5.11761C23.3972 4.84876 23.1583 4.62168 22.8804 4.45109C22.4896 4.20335 22.0361 4.07227 21.5734 4.07325L21.5721 4.07386Z" fill="white"/>
</g>
<defs>
<clipPath id="clip0_1147_5426">
<rect width="24" height="24" fill="white"/>
</clipPath>
</defs>
</svg>
