<svg width="29" height="32" viewBox="0 0 29 32" fill="none" xmlns="http://www.w3.org/2000/svg">
<g clip-path="url(#clip0_1147_5366)">
<path fill-rule="evenodd" clip-rule="evenodd" d="M29 8.46415H26.5854V5.96508H24.1294V3.4746H21.7562V0.941177H7.2438V3.4746H4.87055V5.96508H2.41459V8.46415H0V23.5358H2.41459V26.035H4.87055V28.5254H7.2438V31.0588H21.7562V28.5254H24.1294V26.035H26.5854V23.5358H29V8.46415Z" fill="#7FE25C"/>
<path fill-rule="evenodd" clip-rule="evenodd" d="M8.0625 8.47243H12.8917V11.8217H14.5042V10.1471H16.1084V8.47243H20.9375V13.4877H19.3335V15.1624H17.7209V16.837H19.3335V18.5116H20.9375V23.527H16.1084V21.8522H14.5042V20.1777H12.8917V23.527H8.0625V8.47243Z" fill="black"/>
</g>
<defs>
<clipPath id="clip0_1147_5366">
<rect width="29" height="32" fill="white"/>
</clipPath>
</defs>
</svg>
