<svg width="22" height="22" viewBox="0 0 22 22" fill="none" xmlns="http://www.w3.org/2000/svg">
<path d="M4.87499 16C5.72499 15.3667 6.67099 14.8667 7.71299 14.5C8.75432 14.1333 9.84999 13.95 11 13.95C12.15 13.95 13.25 14.1373 14.3 14.512C15.35 14.8873 16.2917 15.3917 17.125 16.025C17.6917 15.325 18.1333 14.554 18.45 13.712C18.7667 12.8707 18.925 11.9667 18.925 11C18.925 8.8 18.1543 6.929 16.613 5.387C15.071 3.84567 13.2 3.075 11 3.075C8.79999 3.075 6.92932 3.84567 5.38799 5.387C3.84599 6.929 3.07499 8.8 3.07499 11C3.07499 11.9667 3.23332 12.8707 3.54999 13.712C3.86665 14.554 4.30832 15.3167 4.87499 16ZM11 12.05C9.99999 12.05 9.15832 11.7083 8.47499 11.025C7.79165 10.3417 7.44999 9.5 7.44999 8.5C7.44999 7.51667 7.79165 6.68334 8.47499 6C9.15832 5.31667 9.99999 4.975 11 4.975C12 4.975 12.8417 5.31667 13.525 6C14.2083 6.68334 14.55 7.51667 14.55 8.5C14.55 9.5 14.2083 10.3417 13.525 11.025C12.8417 11.7083 12 12.05 11 12.05ZM11 21.2C9.58332 21.2 8.25399 20.9333 7.01199 20.4C5.77065 19.8667 4.69165 19.1417 3.77499 18.225C2.85832 17.3083 2.13332 16.2293 1.59999 14.988C1.06665 13.746 0.799988 12.4167 0.799988 11C0.799988 9.58334 1.06665 8.254 1.59999 7.012C2.13332 5.77067 2.85832 4.69167 3.77499 3.775C4.69165 2.85834 5.77065 2.13334 7.01199 1.6C8.25399 1.06667 9.58332 0.800003 11 0.800003C12.4167 0.800003 13.746 1.06667 14.988 1.6C16.2293 2.13334 17.3083 2.85834 18.225 3.775C19.1417 4.69167 19.8667 5.77067 20.4 7.012C20.9333 8.254 21.2 9.58334 21.2 11C21.2 12.4167 20.9333 13.746 20.4 14.988C19.8667 16.2293 19.1417 17.3083 18.225 18.225C17.3083 19.1417 16.2293 19.8667 14.988 20.4C13.746 20.9333 12.4167 21.2 11 21.2Z" fill="white"/>
</svg>
