<svg width="24" height="24" viewBox="0 0 24 24" fill="none" xmlns="http://www.w3.org/2000/svg">
<path d="M12 16C13.25 16 14.3125 15.5625 15.1875 14.6875C16.0625 13.8125 16.5 12.75 16.5 11.5C16.5 10.25 16.0625 9.1875 15.1875 8.3125C14.3125 7.43749 13.25 6.99999 12 6.99999C10.75 6.99999 9.6875 7.43749 8.8125 8.3125C7.9375 9.1875 7.5 10.25 7.5 11.5C7.5 12.75 7.9375 13.8125 8.8125 14.6875C9.6875 15.5625 10.75 16 12 16ZM12.0025 13.9032C11.3356 13.9032 10.7679 13.6698 10.2995 13.203C9.83099 12.7362 9.59675 12.1694 9.59675 11.5025C9.59675 10.8356 9.83016 10.2679 10.297 9.79947C10.7638 9.33099 11.3306 9.09675 11.9975 9.09675C12.6644 9.09675 13.2321 9.33015 13.7005 9.79697C14.169 10.2638 14.4033 10.8306 14.4033 11.4975C14.4033 12.1644 14.1698 12.7321 13.703 13.2005C13.2362 13.669 12.6694 13.9032 12.0025 13.9032ZM12 19.4381C9.61739 19.4381 7.43713 18.7997 5.45923 17.5228C3.48133 16.246 1.97716 14.5377 0.946727 12.3978C0.879761 12.2886 0.835119 12.152 0.812802 11.9882C0.790486 11.8243 0.779327 11.6616 0.779327 11.5C0.779327 11.3384 0.790494 11.1757 0.812827 11.0118C0.835127 10.848 0.879761 10.7114 0.946727 10.6022C1.97716 8.4623 3.48133 6.75396 5.45923 5.47715C7.43713 4.20033 9.61739 3.56192 12 3.56192C14.3826 3.56192 16.5629 4.20033 18.5408 5.47715C20.5187 6.75396 22.0228 8.4623 23.0533 10.6022C23.1202 10.7114 23.1649 10.848 23.1872 11.0118C23.2095 11.1757 23.2207 11.3384 23.2207 11.5C23.2207 11.6616 23.2095 11.8243 23.1872 11.9882C23.1649 12.152 23.1202 12.2886 23.0533 12.3978C22.0228 14.5377 20.5187 16.246 18.5408 17.5228C16.5629 18.7997 14.3826 19.4381 12 19.4381Z" fill="white"/>
</svg>
