<svg width="24" height="24" viewBox="0 0 24 24" fill="none" xmlns="http://www.w3.org/2000/svg">
<path d="M19.7522 16.6272L16.1848 13.0598C16.2899 12.8235 16.3687 12.5667 16.4212 12.2891C16.4737 12.0116 16.5 11.7486 16.5 11.5C16.5 10.25 16.0625 9.1875 15.1875 8.3125C14.3125 7.4375 13.25 7 12 7C11.7326 7 11.4696 7.02627 11.2109 7.0788C10.9522 7.13133 10.6953 7.21014 10.4402 7.31523L7.53695 4.41192C8.22029 4.12859 8.93913 3.91609 9.69348 3.77442C10.4478 3.63276 11.2167 3.56192 12 3.56192C14.4116 3.56192 16.598 4.19816 18.5593 5.47062C20.5205 6.74309 22.0185 8.45361 23.0533 10.6022C23.1221 10.7138 23.1672 10.8509 23.1886 11.0136C23.21 11.1763 23.2207 11.3384 23.2207 11.5C23.2207 11.6616 23.2058 11.8237 23.1761 11.9864C23.1464 12.1491 23.1055 12.2862 23.0533 12.3978C22.6605 13.229 22.1814 14.0065 21.6158 14.7305C21.0502 15.4544 20.429 16.0866 19.7522 16.6272ZM18.8457 21.9989L15.6848 18.8598C15.1203 19.0526 14.5328 19.1971 13.9223 19.2935C13.3118 19.3899 12.671 19.4381 12 19.4381C9.5884 19.4381 7.40199 18.7995 5.44075 17.5223C3.47952 16.2451 1.98151 14.537 0.946727 12.3978C0.877894 12.2862 0.832786 12.1491 0.811402 11.9864C0.790019 11.8237 0.779327 11.6616 0.779327 11.5C0.779327 11.3384 0.790019 11.1781 0.811402 11.019C0.832769 10.86 0.877877 10.7246 0.946727 10.613C1.28731 9.90071 1.6922 9.2326 2.1614 8.6087C2.6306 7.98478 3.14274 7.40616 3.6978 6.87282L1.77825 4.92825C1.56665 4.71667 1.46085 4.4616 1.46085 4.16305C1.46085 3.8645 1.57027 3.6058 1.7891 3.38695C2.0007 3.17535 2.25994 3.06955 2.56683 3.06955C2.87373 3.06955 3.13297 3.17535 3.34455 3.38695L20.4011 20.4435C20.6127 20.6551 20.7203 20.9125 20.7239 21.2157C20.7275 21.519 20.6199 21.7801 20.4011 21.9989C20.1895 22.2105 19.9303 22.3163 19.6234 22.3163C19.3165 22.3163 19.0572 22.2105 18.8457 21.9989ZM12 16C12.1362 16 12.2647 15.994 12.3853 15.9821C12.506 15.9701 12.6344 15.9438 12.7707 15.9033L7.56848 10.7294C7.53733 10.8656 7.51813 10.9964 7.51088 11.1217C7.50363 11.2471 7.5 11.3732 7.5 11.5C7.5 12.75 7.9375 13.8125 8.8125 14.6875C9.6875 15.5625 10.75 16 12 16ZM14.2119 11.0869L12.512 9.38697C13.0569 9.30292 13.4975 9.45419 13.8337 9.84077C14.1699 10.2274 14.296 10.6427 14.2119 11.0869Z" fill="white"/>
</svg>
