<svg width="38" height="38" viewBox="0 0 38 38" fill="none" xmlns="http://www.w3.org/2000/svg">
<rect width="38" height="38" rx="2" fill="#FFD737"/>
<path d="M17.5492 24.725C17.3992 24.725 17.2576 24.7 17.1242 24.65C16.9909 24.6 16.8659 24.5167 16.7492 24.4L12.4492 20.1C12.2326 19.8833 12.1286 19.6123 12.1372 19.287C12.1452 18.9623 12.2576 18.6917 12.4742 18.475C12.6909 18.2583 12.9619 18.15 13.2872 18.15C13.6119 18.15 13.8742 18.2583 14.0742 18.475L17.5492 21.95L25.9242 13.575C26.1242 13.3583 26.3909 13.25 26.7242 13.25C27.0576 13.25 27.3326 13.3583 27.5492 13.575C27.7492 13.7917 27.8492 14.0623 27.8492 14.387C27.8492 14.7123 27.7492 14.9833 27.5492 15.2L18.3492 24.4C18.2326 24.5167 18.1076 24.6 17.9742 24.65C17.8409 24.7 17.6992 24.725 17.5492 24.725Z" fill="black"/>
</svg>
