<svg width="24" height="24" viewBox="0 0 24 24" fill="none" xmlns="http://www.w3.org/2000/svg">
<path d="M11.9999 13.6L7.1999 18.4C6.98324 18.6167 6.71657 18.725 6.3999 18.725C6.08324 18.725 5.81657 18.6167 5.5999 18.4C5.38324 18.1834 5.2749 17.9167 5.2749 17.6C5.2749 17.2834 5.38324 17.0167 5.5999 16.8L10.3999 12L5.5999 7.20002C5.38324 6.98336 5.2749 6.71669 5.2749 6.40002C5.2749 6.08336 5.38324 5.81669 5.5999 5.60002C5.81657 5.38336 6.08324 5.27502 6.3999 5.27502C6.71657 5.27502 6.98324 5.38336 7.1999 5.60002L11.9999 10.4L16.7999 5.60002C17.0166 5.38336 17.2832 5.27502 17.5999 5.27502C17.9166 5.27502 18.1832 5.38336 18.3999 5.60002C18.6166 5.81669 18.7249 6.08336 18.7249 6.40002C18.7249 6.71669 18.6166 6.98336 18.3999 7.20002L13.5999 12L18.3999 16.8C18.6166 17.0167 18.7249 17.2834 18.7249 17.6C18.7249 17.9167 18.6166 18.1834 18.3999 18.4C18.1832 18.6167 17.9166 18.725 17.5999 18.725C17.2832 18.725 17.0166 18.6167 16.7999 18.4L11.9999 13.6Z" fill="white"/>
</svg>
