<svg width="24" height="24" viewBox="0 0 24 24" fill="none" xmlns="http://www.w3.org/2000/svg">
<path d="M4.0001 18.225C3.68343 18.225 3.41276 18.1167 3.1881 17.9C2.96276 17.6834 2.8501 17.4167 2.8501 17.1C2.8501 16.7667 2.96276 16.4917 3.1881 16.275C3.41276 16.0584 3.68343 15.95 4.0001 15.95H20.0001C20.3168 15.95 20.5874 16.0584 20.8121 16.275C21.0374 16.4917 21.1501 16.7667 21.1501 17.1C21.1501 17.4167 21.0374 17.6834 20.8121 17.9C20.5874 18.1167 20.3168 18.225 20.0001 18.225H4.0001ZM4.0001 13.15C3.68343 13.15 3.41276 13.0374 3.1881 12.812C2.96276 12.5874 2.8501 12.3167 2.8501 12C2.8501 11.6834 2.96276 11.4127 3.1881 11.188C3.41276 10.9627 3.68343 10.85 4.0001 10.85H20.0001C20.3168 10.85 20.5874 10.9627 20.8121 11.188C21.0374 11.4127 21.1501 11.6834 21.1501 12C21.1501 12.3167 21.0374 12.5874 20.8121 12.812C20.5874 13.0374 20.3168 13.15 20.0001 13.15H4.0001ZM4.0001 8.05002C3.68343 8.05002 3.41276 7.94169 3.1881 7.72502C2.96276 7.50836 2.8501 7.23336 2.8501 6.90002C2.8501 6.58336 2.96276 6.31669 3.1881 6.10002C3.41276 5.88336 3.68343 5.77502 4.0001 5.77502H20.0001C20.3168 5.77502 20.5874 5.88336 20.8121 6.10002C21.0374 6.31669 21.1501 6.58336 21.1501 6.90002C21.1501 7.23336 21.0374 7.50836 20.8121 7.72502C20.5874 7.94169 20.3168 8.05002 20.0001 8.05002H4.0001Z" fill="white"/>
</svg>
