<svg width="24" height="24" viewBox="0 0 24 24" fill="none" xmlns="http://www.w3.org/2000/svg">
<circle cx="12" cy="12" r="12" fill="#C600C6"/>
<path d="M11.1156 4.67634C11.4908 3.96519 12.5092 3.96519 12.8844 4.67634L14.5214 7.77891C14.6661 8.05316 14.9298 8.24477 15.2353 8.29763L18.6919 8.89571C19.4842 9.03279 19.7989 10.0014 19.2385 10.578L16.7936 13.0936C16.5775 13.316 16.4768 13.626 16.5209 13.9329L17.0203 17.4051C17.1347 18.201 16.3108 18.7996 15.5892 18.4448L12.4412 16.897C12.163 16.7601 11.837 16.7601 11.5588 16.897L8.4108 18.4448C7.68925 18.7996 6.86527 18.201 6.97973 17.4051L7.47906 13.9329C7.5232 13.626 7.42247 13.316 7.20636 13.0936L4.76148 10.578C4.20108 10.0014 4.51581 9.03279 5.30809 8.89571L8.76466 8.29763C9.07019 8.24477 9.33392 8.05316 9.47861 7.77891L11.1156 4.67634Z" fill="#FFD2FF"/>
</svg>
