<svg width="14" height="14" viewBox="0 0 14 14" fill="none" xmlns="http://www.w3.org/2000/svg">
<circle cx="7" cy="7" r="6" fill="#424042"/>
<path d="M6.275 8.05834L5.1 6.88334C5.01944 6.80278 4.91944 6.7625 4.8 6.7625C4.68056 6.7625 4.57778 6.80555 4.49166 6.89166C4.41111 6.97222 4.37084 7.07222 4.37084 7.19166C4.37084 7.31111 4.41111 7.41111 4.49166 7.49166L5.98334 8.99166C6.06667 9.075 6.16389 9.11666 6.275 9.11666C6.38611 9.11666 6.48333 9.075 6.56666 8.99166L9.5 6.05834C9.58611 5.97222 9.62916 5.86944 9.62916 5.75C9.62916 5.63056 9.58611 5.52778 9.5 5.44166C9.41389 5.36111 9.30973 5.32223 9.1875 5.325C9.06528 5.32778 8.9639 5.36944 8.88334 5.45L6.275 8.05834ZM7 12C6.31389 12 5.66667 11.8688 5.05834 11.6062C4.45 11.3438 3.91945 10.9861 3.46666 10.5333C3.01389 10.0806 2.65625 9.55 2.39375 8.94166C2.13125 8.33333 2 7.68611 2 7C2 6.30833 2.13125 5.65833 2.39375 5.05C2.65625 4.44167 3.01389 3.9125 3.46666 3.4625C3.91945 3.0125 4.45 2.65625 5.05834 2.39375C5.66667 2.13125 6.31389 2 7 2C7.69167 2 8.34167 2.13125 8.95 2.39375C9.55833 2.65625 10.0875 3.0125 10.5375 3.4625C10.9875 3.9125 11.3438 4.44167 11.6062 5.05C11.8688 5.65833 12 6.30833 12 7C12 7.68611 11.8688 8.33333 11.6062 8.94166C11.3438 9.55 10.9875 10.0806 10.5375 10.5333C10.0875 10.9861 9.55833 11.3438 8.95 11.6062C8.34167 11.8688 7.69167 12 7 12Z" fill="#7FE25C"/>
</svg>
